<?xml version="1.0" encoding="utf-8"?>
<!-- Generator: Adobe Illustrator 18.1.0, SVG Export Plug-In . SVG Version: 6.00 Build 0)  -->
<svg version="1.1" id="Layer_1" xmlns="http://www.w3.org/2000/svg" xmlns:xlink="http://www.w3.org/1999/xlink" x="0px" y="0px"
	 viewBox="0 0 362.8 364.2" enable-background="new 0 0 362.8 364.2" xml:space="preserve">
<path fill="#E6312A" d="M180.9,0c0,0,107-4.8,163.7,102.7c-30,0-172.7,0-172.7,0s-32.6-1.1-60.4,38.5c-8,16.6-16.6,33.7-7,67.4
	C90.6,185.1,30.7,80.8,30.7,80.8S72.9,4.3,180.9,0z"/>
<path fill="#FEDA00" d="M339,273c0,0-49.3,95-170.8,90.4c15-25.9,86.4-149.6,86.4-149.6s17.2-27.7-3.1-71.6
	c-10.3-15.2-20.9-31.2-54.9-39.7c27.3-0.3,147.6,0,147.6,0S389.4,177.3,339,273z"/>
<path fill="#65B54C" d="M23.6,273.7c0,0-57.6-90.2,7.1-193.1c15,25.9,86.3,149.6,86.3,149.6s15.4,28.8,63.6,33.1
	c18.4-1.3,37.5-2.5,61.8-27.7c-13.4,23.8-73.8,127.8-73.8,127.8S81.3,365.1,23.6,273.7z"/>
<path fill="#60AC48" d="M168.3,364.2l24.3-101.4c0,0,26.7-2.1,49.1-26.7C227.8,260.6,168.3,364.2,168.3,364.2z"/>
<path fill="#FFFFFF" d="M99.6,183.2c0-44.7,36.2-80.9,80.9-80.9c44.7,0,80.9,36.2,80.9,80.9c0,44.7-36.2,80.9-80.9,80.9
	C135.8,264.2,99.6,227.9,99.6,183.2z"/>
<linearGradient id="SVGID_1_" gradientUnits="userSpaceOnUse" x1="180.4969" y1="116.8014" x2="180.4969" y2="246.5923">
	<stop  offset="0" style="stop-color:#96C1E9"/>
	<stop  offset="1" style="stop-color:#146CB5"/>
</linearGradient>
<path fill="url(#SVGID_1_)" d="M113.1,183.2c0-37.2,30.2-67.4,67.4-67.4c37.2,0,67.4,30.2,67.4,67.4c0,37.2-30.2,67.4-67.4,67.4
	C143.3,250.6,113.1,220.5,113.1,183.2z"/>
<path fill="#F1CF00" d="M344.3,102.4l-100.1,29.3c0,0-15.1-22.1-47.5-29.4C224.8,102.3,344.3,102.4,344.3,102.4z"/>
<path fill="#DA3027" d="M102.5,205C88.5,180.6,30.7,80.8,30.7,80.8l74.1,73.3c0,0-7.6,15.7-4.7,38L102.5,205z"/>
</svg>
