<?xml version="1.0" encoding="utf-8"?>
<!-- Generator: Adobe Illustrator 18.1.0, SVG Export Plug-In . SVG Version: 6.00 Build 0)  -->
<svg version="1.1" id="Layer_1" xmlns="http://www.w3.org/2000/svg" xmlns:xlink="http://www.w3.org/1999/xlink" x="0px" y="0px"
	 viewBox="0 0 32 32" enable-background="new 0 0 32 32" xml:space="preserve">
<g>
	<path fill="#ED1C24" d="M16,31.5c-8.5,0-15.5-7-15.5-15.5S7.5,0.5,16,0.5s15.5,7,15.5,15.5S24.5,31.5,16,31.5z"/>
	<path fill="#231F20" d="M16,1c8.3,0,15,6.7,15,15s-6.7,15-15,15S1,24.3,1,16S7.7,1,16,1 M16,0C7.2,0,0,7.2,0,16s7.2,16,16,16
		s16-7.2,16-16S24.8,0,16,0L16,0z"/>
</g>
<rect x="5.4" y="13.2" fill="#FFFFFF" width="21.1" height="5.6"/>
</svg>
