<?xml version="1.0" encoding="utf-8"?>
<!-- Generator: Adobe Illustrator 19.1.0, SVG Export Plug-In . SVG Version: 6.00 Build 0)  -->
<svg version="1.1" id="Layer_1" xmlns="http://www.w3.org/2000/svg" xmlns:xlink="http://www.w3.org/1999/xlink" x="0px" y="0px"
	 viewBox="-735.5 549.6 101.5 42.8" style="enable-background:new -735.5 549.6 101.5 42.8;" xml:space="preserve">
<style type="text/css">
	.st0{display:none;}
	.st1{clip-path:url(#SVGID_2_);fill:url(#SVGID_3_);}
	.st2{fill:#E53029;}
	.st3{fill:#FDD900;}
	.st4{fill:#66B44B;}
	.st5{fill:#61AB48;}
	.st6{fill:#FFFFFF;}
	.st7{fill:url(#SVGID_4_);}
	.st8{fill:#F0CE00;}
	.st9{fill:#D92F27;}
	.st10{font-family:'MyriadPro-Semibold';}
	.st11{font-size:11px;}
	.st12{font-family:'MyriadPro-Regular';}
</style>
<g id="Layer_1_1_" xmlns:svg="http://www.w3.org/2000/svg" class="st0">
	
		<image style="display:inline;overflow:visible;enable-background:new    ;" width="115" height="44" xlink:href="5C140CCA.jpg"  transform="matrix(0.9895 0 0 0.9895 -745.3976 550.8305)">
	</image>
</g>
<g id="Layer_4">
	<g>
		<g>
			<g>
				<defs>
					<path id="SVGID_1_" d="M-733.5,592.4h97.5c1.1,0,2-0.9,2-2v-35c0-1.1-0.9-2-2-2h-97.5c-1.1,0-2,0.9-2,2v35
						C-735.5,591.5-734.6,592.4-733.5,592.4z"/>
				</defs>
				<clipPath id="SVGID_2_">
					<use xlink:href="#SVGID_1_"  style="overflow:visible;"/>
				</clipPath>
				
					<linearGradient id="SVGID_3_" gradientUnits="userSpaceOnUse" x1="-900.7567" y1="63.5541" x2="-900.7567" y2="183.1746" gradientTransform="matrix(-1 0 0 -1 -1585.5566 705.2787)">
					<stop  offset="0" style="stop-color:#86BBE5"/>
					<stop  offset="1" style="stop-color:#116CB3"/>
				</linearGradient>
				<path class="st1" d="M-622.7,580.5c0,34.3-27.8,62.1-62.1,62.1s-62.1-27.8-62.1-62.1c0-34.3,27.8-62.1,62.1-62.1
					S-622.7,546.2-622.7,580.5z"/>
			</g>
		</g>
	</g>
</g>
<g id="Layer_3">
	<path class="st2" d="M-708.4,549.6c0,0,11.9-0.5,18.2,11.4c-3.3,0-19.2,0-19.2,0s-3.6-0.1-6.7,4.3c-0.9,1.8-1.8,3.7-0.8,7.5
		c-1.5-2.6-8.2-14.2-8.2-14.2S-720.4,550.1-708.4,549.6z"/>
	<path class="st3" d="M-690.9,579.9c0,0-5.5,10.6-19,10c1.7-2.9,9.6-16.6,9.6-16.6s1.9-3.1-0.3-7.9c-1.1-1.7-2.3-3.5-6.1-4.4
		c3,0,16.4,0,16.4,0S-685.3,569.3-690.9,579.9z"/>
	<path class="st4" d="M-725.9,580c0,0-6.4-10,0.8-21.4c1.7,2.9,9.6,16.6,9.6,16.6s1.7,3.2,7.1,3.7c2-0.1,4.2-0.3,6.9-3.1
		c-1.5,2.6-8.2,14.2-8.2,14.2S-719.5,590.1-725.9,580z"/>
	<path class="st5" d="M-709.8,590l2.7-11.3c0,0,3-0.2,5.5-3C-703.2,578.5-709.8,590-709.8,590z"/>
	<circle class="st6" cx="-708.5" cy="569.9" r="9"/>
	
		<linearGradient id="SVGID_4_" gradientUnits="userSpaceOnUse" x1="-708.5" y1="559.9719" x2="-708.5" y2="574.3833" gradientTransform="matrix(1 0 0 1 0 2.6)">
		<stop  offset="0" style="stop-color:#86BBE5"/>
		<stop  offset="1" style="stop-color:#116CB3"/>
	</linearGradient>
	<circle class="st7" cx="-708.5" cy="569.9" r="7.5"/>
	<path class="st8" d="M-690.3,561l-11.1,3.3c0,0-1.7-2.5-5.3-3.3C-703.6,561-690.3,561-690.3,561z"/>
	<path class="st9" d="M-717.1,572.4c-1.6-2.7-8-13.8-8-13.8l8.2,8.1c0,0-0.8,1.7-0.5,4.2L-717.1,572.4z"/>
</g>
<text transform="matrix(1 0 0 1 -659.861 565.7004)" class="st6 st10 st11">Built</text>
<text transform="matrix(1 0 0 1 -651.361 576.7004)" class="st6 st10 st11">for</text>
<text transform="matrix(1 0 0 1 -681.361 586.7004)" class="st6 st12 st11">chrome</text>
<g>
	<path class="st6" d="M-659.1,558.4c0.4-0.1,1.2-0.2,2-0.2c1,0,1.6,0.1,2.1,0.5c0.5,0.3,0.8,0.8,0.8,1.4c0,0.7-0.4,1.3-1.2,1.6l0,0
		c0.8,0.2,1.5,0.8,1.5,1.8c0,0.7-0.3,1.2-0.7,1.5c-0.5,0.5-1.4,0.7-2.8,0.7c-0.7,0-1.3-0.1-1.7-0.1L-659.1,558.4L-659.1,558.4z
		 M-657.7,561.3h0.7c0.9,0,1.5-0.4,1.5-1.1s-0.5-1-1.4-1c-0.4,0-0.6,0-0.8,0.1V561.3z M-657.7,564.7c0.2,0,0.4,0,0.7,0
		c0.9,0,1.6-0.3,1.6-1.2s-0.7-1.2-1.7-1.2h-0.7v2.4H-657.7z"/>
	<path class="st6" d="M-648,564.1c0,0.6,0,1.2,0,1.6h-1.2l-0.1-0.8l0,0c-0.2,0.4-0.8,0.9-1.7,0.9c-1,0-1.9-0.6-1.9-2.3v-3.2h1.4v2.9
		c0,0.9,0.3,1.5,1,1.5c0.5,0,0.9-0.4,1-0.7c0-0.1,0.1-0.3,0.1-0.4v-3.3h1.4V564.1z"/>
	<path class="st6" d="M-645.1,558.8c0,0.4-0.3,0.7-0.8,0.7s-0.7-0.3-0.7-0.7c0-0.4,0.3-0.7,0.8-0.7
		C-645.4,558.1-645.1,558.4-645.1,558.8z M-646.5,565.7v-5.4h1.4v5.4H-646.5z"/>
	<path class="st6" d="M-643.7,557.9h1.4v7.8h-1.4V557.9z"/>
	<path class="st6" d="M-639.3,558.8v1.5h1.3v1h-1.3v2.4c0,0.6,0.2,1,0.7,1c0.2,0,0.4,0,0.5-0.1v1c-0.2,0.1-0.6,0.1-1,0.1
		c-0.5,0-0.9-0.2-1.2-0.4c-0.3-0.3-0.4-0.8-0.4-1.5v-2.5h-0.8v-1h0.8v-1.2L-639.3,558.8z"/>
	<path class="st6" d="M-650.4,576.7v-4.3h-0.7v-1h0.7v-0.2c0-0.7,0.2-1.4,0.6-1.8c0.4-0.4,0.9-0.5,1.4-0.5c0.4,0,0.6,0.1,0.9,0.1
		l-0.1,1c-0.1-0.1-0.3-0.1-0.6-0.1c-0.7,0-0.9,0.6-0.9,1.2v0.3h1.2v1h-1.2v4.3H-650.4z"/>
	<path class="st6" d="M-642.1,574c0,2-1.4,2.8-2.8,2.8c-1.5,0-2.7-1-2.7-2.8s1.2-2.8,2.8-2.8C-643.1,571.2-642.1,572.3-642.1,574z
		 M-646.1,574c0,1,0.5,1.8,1.3,1.8s1.3-0.8,1.3-1.8c0-0.8-0.4-1.8-1.3-1.8C-645.7,572.2-646.1,573.1-646.1,574z"/>
	<path class="st6" d="M-641,573.1c0-0.7,0-1.2,0-1.7h1.2v1l0,0c0.3-0.8,0.9-1.1,1.5-1.1c0.1,0,0.2,0,0.3,0v1.3c-0.1,0-0.2,0-0.4,0
		c-0.6,0-1.1,0.4-1.2,1c0,0.1,0,0.3,0,0.4v2.8h-1.4L-641,573.1L-641,573.1z"/>
	<path class="st6" d="M-676.7,586.5c-0.3,0.1-0.8,0.3-1.5,0.3c-1.6,0-2.7-1.1-2.7-2.7c0-1.6,1.1-2.8,2.9-2.8c0.6,0,1.1,0.1,1.3,0.3
		l-0.2,0.7c-0.2-0.1-0.6-0.3-1.1-0.3c-1.2,0-1.9,0.9-1.9,2c0,1.2,0.8,2,1.8,2c0.5,0,0.9-0.1,1.2-0.3L-676.7,586.5z"/>
	<path class="st6" d="M-673.9,578.9h1v3.3l0,0c0.2-0.3,0.4-0.5,0.7-0.7s0.6-0.3,1-0.3c0.7,0,1.9,0.4,1.9,2.3v3.2h-1v-3.1
		c0-0.9-0.3-1.6-1.2-1.6c-0.6,0-1.1,0.4-1.3,1c-0.1,0.1-0.1,0.3-0.1,0.5v3.2h-1L-673.9,578.9L-673.9,578.9z"/>
	<path class="st6" d="M-666.1,583c0-0.6,0-1.2,0-1.7h0.8v1l0,0c0.2-0.7,0.8-1.2,1.5-1.2c0.1,0,0.2,0,0.3,0v0.9c-0.1,0-0.2,0-0.3,0
		c-0.7,0-1.2,0.5-1.3,1.2c0,0.1,0,0.3,0,0.5v2.8h-1V583z"/>
	<path class="st6" d="M-656.2,584c0,2-1.4,2.8-2.7,2.8c-1.4,0-2.6-1.1-2.6-2.7c0-1.8,1.2-2.8,2.6-2.8
		C-657.2,581.3-656.2,582.4-656.2,584z M-660.4,584c0,1.2,0.7,2,1.6,2c0.9,0,1.6-0.9,1.6-2.1c0-0.9-0.5-2-1.6-2
		C-659.9,582-660.4,583-660.4,584z"/>
	<path class="st6" d="M-653.3,582.8c0-0.5,0-1,0-1.4h0.8v0.9l0,0c0.3-0.5,0.8-1,1.7-1c0.7,0,1.3,0.4,1.5,1.1l0,0
		c0.2-0.3,0.4-0.5,0.6-0.7c0.3-0.2,0.7-0.4,1.2-0.4c0.7,0,1.7,0.5,1.7,2.3v3.1h-0.9v-3c0-1-0.4-1.6-1.2-1.6c-0.5,0-1,0.4-1.1,0.9
		c0,0.1-0.1,0.3-0.1,0.5v3.3h-0.9v-3.2c0-0.8-0.4-1.5-1.1-1.5c-0.6,0-1,0.5-1.2,1c-0.1,0.1-0.1,0.3-0.1,0.5v3.2h-0.9V582.8z"/>
	<path class="st6" d="M-641.9,584.2c0,1.3,0.9,1.8,1.8,1.8c0.7,0,1.1-0.1,1.5-0.3l0.2,0.7c-0.3,0.2-0.9,0.3-1.8,0.3
		c-1.6,0-2.6-1.1-2.6-2.7c0-1.6,0.9-2.9,2.5-2.9c1.7,0,2.2,1.5,2.2,2.5c0,0.2,0,0.4,0,0.5h-3.8V584.2z M-639.1,583.5
		c0-0.6-0.3-1.6-1.3-1.6s-1.4,0.9-1.5,1.6H-639.1z"/>
</g>
</svg>
