<?xml version="1.0" encoding="utf-8"?>
<!-- Generator: Adobe Illustrator 19.1.0, SVG Export Plug-In . SVG Version: 6.00 Build 0)  -->
<svg version="1.1" id="Layer_1" xmlns="http://www.w3.org/2000/svg" xmlns:xlink="http://www.w3.org/1999/xlink" x="0px" y="0px"
	 viewBox="-54 104.3 110 42.7" style="enable-background:new -54 104.3 110 42.7;" xml:space="preserve">
<style type="text/css">
	.st0{display:none;}
	.st1{clip-path:url(#SVGID_2_);fill:url(#SVGID_3_);}
	.st2{fill:#E53029;}
	.st3{fill:#FDD900;}
	.st4{fill:#66B44B;}
	.st5{fill:#61AB48;}
	.st6{fill:#FFFFFF;}
	.st7{fill:url(#SVGID_4_);}
	.st8{fill:#F0CE00;}
	.st9{fill:#D92F27;}
</style>
<g id="Layer_1_1_" xmlns:svg="http://www.w3.org/2000/svg" class="st0">
	
		<image style="display:inline;overflow:visible;enable-background:new    ;" width="115" height="44" xlink:href="5C140CCA.jpg"  transform="matrix(0.9895 0 0 0.9895 -691.3976 446.5305)">
	</image>
</g>
<g id="Layer_4">
	<g>
		<g>
			<defs>
				<path id="SVGID_1_" d="M-679.5,488.1h97.5c1.1,0,2-0.9,2-2v-35c0-1.1-0.9-2-2-2h-97.5c-1.1,0-2,0.9-2,2v35
					C-681.5,487.2-680.6,488.1-679.5,488.1z"/>
			</defs>
			<clipPath id="SVGID_2_">
				<use xlink:href="#SVGID_1_"  style="overflow:visible;"/>
			</clipPath>
			
				<linearGradient id="SVGID_3_" gradientUnits="userSpaceOnUse" x1="-738.7567" y1="84.7459" x2="-738.7567" y2="-34.8746" gradientTransform="matrix(-1 0 0 1 -1369.5566 452.6787)">
				<stop  offset="0" style="stop-color:#86BBE5"/>
				<stop  offset="1" style="stop-color:#116CB3"/>
			</linearGradient>
			<path class="st1" d="M-568.7,476.2c0,34.3-27.8,62.1-62.1,62.1s-62.1-27.8-62.1-62.1s27.8-62.1,62.1-62.1
				S-568.7,441.9-568.7,476.2z"/>
		</g>
	</g>
</g>
<g id="Layer_3">
	<path class="st2" d="M-654.4,445.3c0,0,11.9-0.5,18.2,11.4c-3.3,0-19.2,0-19.2,0s-3.6-0.1-6.7,4.3c-0.9,1.8-1.8,3.7-0.8,7.5
		c-1.5-2.6-8.2-14.2-8.2-14.2S-666.4,445.8-654.4,445.3z"/>
	<path class="st3" d="M-636.9,475.6c0,0-5.5,10.6-19,10c1.7-2.9,9.6-16.6,9.6-16.6s1.9-3.1-0.3-7.9c-1.1-1.7-2.3-3.5-6.1-4.4
		c3,0,16.4,0,16.4,0S-631.3,465-636.9,475.6z"/>
	<path class="st4" d="M-671.9,475.7c0,0-6.4-10,0.8-21.4c1.7,2.9,9.6,16.6,9.6,16.6s1.7,3.2,7.1,3.7c2-0.1,4.2-0.3,6.9-3.1
		c-1.5,2.6-8.2,14.2-8.2,14.2S-665.5,485.8-671.9,475.7z"/>
	<path class="st5" d="M-655.8,485.7l2.7-11.3c0,0,3-0.2,5.5-3C-649.2,474.2-655.8,485.7-655.8,485.7z"/>
	<circle class="st6" cx="-654.5" cy="465.6" r="9"/>
	
		<linearGradient id="SVGID_4_" gradientUnits="userSpaceOnUse" x1="-654.5" y1="-205.6719" x2="-654.5" y2="-220.0833" gradientTransform="matrix(1 0 0 -1 0 252.6)">
		<stop  offset="0" style="stop-color:#86BBE5"/>
		<stop  offset="1" style="stop-color:#116CB3"/>
	</linearGradient>
	<circle class="st7" cx="-654.5" cy="465.6" r="7.5"/>
	<path class="st8" d="M-636.3,456.7l-11.1,3.3c0,0-1.7-2.5-5.3-3.3C-649.6,456.7-636.3,456.7-636.3,456.7z"/>
	<path class="st9" d="M-663.1,468.1c-1.6-2.7-8-13.8-8-13.8l8.2,8.1c0,0-0.8,1.7-0.5,4.2L-663.1,468.1z"/>
</g>
<text transform="matrix(1 0 0 1 -605.861 461.4004)" class="st0"><tspan x="0" y="0" style="display:inline;fill:#FFFFFF; font-family:'MyriadPro-Semibold'; font-size:11px;">Built</tspan><tspan x="8.5" y="11" style="display:inline;fill:#FFFFFF; font-family:'MyriadPro-Semibold'; font-size:11px;">for</tspan><tspan x="-21.5" y="21" style="display:inline;fill:#FFFFFF; font-family:'MyriadPro-Regular'; font-size:11px; letter-spacing:1;">chrome</tspan></text>
<g>
	<path class="st6" d="M-605.1,454.1c0.4-0.1,1.2-0.2,2-0.2c1,0,1.6,0.1,2.1,0.5c0.5,0.3,0.8,0.8,0.8,1.4c0,0.7-0.4,1.3-1.2,1.6v0
		c0.8,0.2,1.5,0.8,1.5,1.8c0,0.7-0.3,1.2-0.7,1.5c-0.5,0.5-1.4,0.7-2.8,0.7c-0.7,0-1.3-0.1-1.7-0.1V454.1z M-603.7,457h0.7
		c0.9,0,1.5-0.4,1.5-1.1c0-0.7-0.5-1-1.4-1c-0.4,0-0.6,0-0.8,0.1V457z M-603.7,460.4c0.2,0,0.4,0,0.7,0c0.9,0,1.6-0.3,1.6-1.2
		c0-0.9-0.7-1.2-1.7-1.2h-0.7V460.4z"/>
	<path class="st6" d="M-594,459.8c0,0.6,0,1.2,0,1.6h-1.2l-0.1-0.8h0c-0.2,0.4-0.8,0.9-1.7,0.9c-1,0-1.9-0.6-1.9-2.3V456h1.4v2.9
		c0,0.9,0.3,1.5,1,1.5c0.5,0,0.9-0.4,1-0.7c0-0.1,0.1-0.3,0.1-0.4V456h1.4V459.8z"/>
	<path class="st6" d="M-591.1,454.5c0,0.4-0.3,0.7-0.8,0.7c-0.5,0-0.7-0.3-0.7-0.7c0-0.4,0.3-0.7,0.8-0.7
		C-591.4,453.8-591.1,454.1-591.1,454.5z M-592.5,461.4V456h1.4v5.4H-592.5z"/>
	<path class="st6" d="M-589.7,453.6h1.4v7.8h-1.4V453.6z"/>
	<path class="st6" d="M-585.3,454.5v1.5h1.3v1h-1.3v2.4c0,0.6,0.2,1,0.7,1c0.2,0,0.4,0,0.5-0.1l0,1c-0.2,0.1-0.6,0.1-1,0.1
		c-0.5,0-0.9-0.2-1.2-0.4c-0.3-0.3-0.4-0.8-0.4-1.5v-2.5h-0.8v-1h0.8v-1.2L-585.3,454.5z"/>
	<path class="st6" d="M-596.4,472.4v-4.3h-0.7v-1h0.7v-0.2c0-0.7,0.2-1.4,0.6-1.8c0.4-0.4,0.9-0.5,1.4-0.5c0.4,0,0.6,0.1,0.9,0.1
		l-0.1,1c-0.1-0.1-0.3-0.1-0.6-0.1c-0.7,0-0.9,0.6-0.9,1.2v0.3h1.2v1h-1.2v4.3H-596.4z"/>
	<path class="st6" d="M-588.1,469.7c0,2-1.4,2.8-2.8,2.8c-1.5,0-2.7-1-2.7-2.8c0-1.8,1.2-2.8,2.8-2.8
		C-589.1,466.9-588.1,468-588.1,469.7z M-592.1,469.7c0,1,0.5,1.8,1.3,1.8c0.8,0,1.3-0.8,1.3-1.8c0-0.8-0.4-1.8-1.3-1.8
		C-591.7,467.9-592.1,468.8-592.1,469.7z"/>
	<path class="st6" d="M-587,468.8c0-0.7,0-1.2,0-1.7h1.2l0,1h0c0.3-0.8,0.9-1.1,1.5-1.1c0.1,0,0.2,0,0.3,0v1.3c-0.1,0-0.2,0-0.4,0
		c-0.6,0-1.1,0.4-1.2,1c0,0.1,0,0.3,0,0.4v2.8h-1.4V468.8z"/>
	<path class="st6" d="M-622.7,482.2c-0.3,0.1-0.8,0.3-1.5,0.3c-1.6,0-2.7-1.1-2.7-2.7c0-1.6,1.1-2.8,2.9-2.8c0.6,0,1.1,0.1,1.3,0.3
		l-0.2,0.7c-0.2-0.1-0.6-0.3-1.1-0.3c-1.2,0-1.9,0.9-1.9,2c0,1.2,0.8,2,1.8,2c0.5,0,0.9-0.1,1.2-0.3L-622.7,482.2z"/>
	<path class="st6" d="M-619.9,474.6h1v3.3h0c0.2-0.3,0.4-0.5,0.7-0.7c0.3-0.2,0.6-0.3,1-0.3c0.7,0,1.9,0.4,1.9,2.3v3.2h-1v-3.1
		c0-0.9-0.3-1.6-1.2-1.6c-0.6,0-1.1,0.4-1.3,1c-0.1,0.1-0.1,0.3-0.1,0.5v3.2h-1V474.6z"/>
	<path class="st6" d="M-612.1,478.7c0-0.6,0-1.2,0-1.7h0.8l0,1h0c0.2-0.7,0.8-1.2,1.5-1.2c0.1,0,0.2,0,0.3,0v0.9c-0.1,0-0.2,0-0.3,0
		c-0.7,0-1.2,0.5-1.3,1.2c0,0.1,0,0.3,0,0.5v2.8h-1V478.7z"/>
	<path class="st6" d="M-602.2,479.7c0,2-1.4,2.8-2.7,2.8c-1.4,0-2.6-1.1-2.6-2.7c0-1.8,1.2-2.8,2.6-2.8
		C-603.2,477-602.2,478.1-602.2,479.7z M-606.4,479.7c0,1.2,0.7,2,1.6,2c0.9,0,1.6-0.9,1.6-2.1c0-0.9-0.5-2-1.6-2
		C-605.9,477.7-606.4,478.7-606.4,479.7z"/>
	<path class="st6" d="M-599.3,478.5c0-0.5,0-1,0-1.4h0.8l0,0.9h0c0.3-0.5,0.8-1,1.7-1c0.7,0,1.3,0.4,1.5,1.1h0
		c0.2-0.3,0.4-0.5,0.6-0.7c0.3-0.2,0.7-0.4,1.2-0.4c0.7,0,1.7,0.5,1.7,2.3v3.1h-0.9v-3c0-1-0.4-1.6-1.2-1.6c-0.5,0-1,0.4-1.1,0.9
		c0,0.1-0.1,0.3-0.1,0.5v3.3h-0.9v-3.2c0-0.8-0.4-1.5-1.1-1.5c-0.6,0-1,0.5-1.2,1c-0.1,0.1-0.1,0.3-0.1,0.5v3.2h-0.9V478.5z"/>
	<path class="st6" d="M-587.9,479.9c0,1.3,0.9,1.8,1.8,1.8c0.7,0,1.1-0.1,1.5-0.3l0.2,0.7c-0.3,0.2-0.9,0.3-1.8,0.3
		c-1.6,0-2.6-1.1-2.6-2.7s0.9-2.9,2.5-2.9c1.7,0,2.2,1.5,2.2,2.5c0,0.2,0,0.4,0,0.5H-587.9z M-585.1,479.2c0-0.6-0.3-1.6-1.3-1.6
		c-1,0-1.4,0.9-1.5,1.6H-585.1z"/>
</g>
</svg>
