<?xml version="1.0" encoding="utf-8"?>
<!-- Generator: Adobe Illustrator 19.1.0, SVG Export Plug-In . SVG Version: 6.00 Build 0)  -->
<svg version="1.1" id="Layer_1" xmlns="http://www.w3.org/2000/svg" xmlns:xlink="http://www.w3.org/1999/xlink" x="0px" y="0px"
	 viewBox="-851.5 758 101.5 42.8" style="enable-background:new -851.5 758 101.5 42.8;" xml:space="preserve">
<style type="text/css">
	.st0{clip-path:url(#SVGID_2_);fill:url(#SVGID_3_);}
	.st1{fill:#E53029;}
	.st2{fill:#FDD900;}
	.st3{fill:#66B44B;}
	.st4{fill:#61AB48;}
	.st5{fill:#FFFFFF;}
	.st6{fill:url(#SVGID_4_);}
	.st7{fill:#F0CE00;}
	.st8{fill:#D92F27;}
</style>
<g id="Layer_4">
	<g>
		<defs>
			<path id="SVGID_1_" d="M-849.5,800.8h97.5c1.1,0,2-0.9,2-2v-35c0-1.1-0.9-2-2-2h-97.5c-1.1,0-2,0.9-2,2v35
				C-851.5,799.9-850.6,800.8-849.5,800.8z"/>
		</defs>
		<clipPath id="SVGID_2_">
			<use xlink:href="#SVGID_1_"  style="overflow:visible;"/>
		</clipPath>
		
			<linearGradient id="SVGID_3_" gradientUnits="userSpaceOnUse" x1="-1248.7567" y1="-142.4459" x2="-1248.7566" y2="-22.8254" gradientTransform="matrix(-1 0 0 -1 -2049.5566 707.6787)">
			<stop  offset="0" style="stop-color:#86BBE5"/>
			<stop  offset="1" style="stop-color:#116CB3"/>
		</linearGradient>
		<path class="st0" d="M-738.7,788.9c0,34.3-27.8,62.1-62.1,62.1s-62.1-27.8-62.1-62.1s27.8-62.1,62.1-62.1
			S-738.7,754.6-738.7,788.9z"/>
	</g>
</g>
<g id="Layer_3">
	<path class="st1" d="M-824.4,758c0,0,11.9-0.5,18.2,11.4c-3.3,0-19.2,0-19.2,0s-3.6-0.1-6.7,4.3c-0.9,1.8-1.8,3.7-0.8,7.5
		c-1.5-2.6-8.2-14.2-8.2-14.2S-836.4,758.5-824.4,758z"/>
	<path class="st2" d="M-806.9,788.3c0,0-5.5,10.6-19,10c1.7-2.9,9.6-16.6,9.6-16.6s1.9-3.1-0.3-7.9c-1.1-1.7-2.3-3.5-6.1-4.4
		c3,0,16.4,0,16.4,0S-801.3,777.7-806.9,788.3z"/>
	<path class="st3" d="M-841.9,788.4c0,0-6.4-10,0.8-21.4c1.7,2.9,9.6,16.6,9.6,16.6s1.7,3.2,7.1,3.7c2-0.1,4.2-0.3,6.9-3.1
		c-1.5,2.6-8.2,14.2-8.2,14.2S-835.5,798.5-841.9,788.4z"/>
	<path class="st4" d="M-825.8,798.4l2.7-11.3c0,0,3-0.2,5.5-3C-819.2,786.9-825.8,798.4-825.8,798.4z"/>
	<circle class="st5" cx="-824.5" cy="778.3" r="9"/>
	
		<linearGradient id="SVGID_4_" gradientUnits="userSpaceOnUse" x1="-824.5" y1="765.9719" x2="-824.5" y2="780.3833" gradientTransform="matrix(1 0 0 1 0 5)">
		<stop  offset="0" style="stop-color:#86BBE5"/>
		<stop  offset="1" style="stop-color:#116CB3"/>
	</linearGradient>
	<circle class="st6" cx="-824.5" cy="778.3" r="7.5"/>
	<path class="st7" d="M-806.3,769.4l-11.1,3.3c0,0-1.7-2.5-5.3-3.3C-819.6,769.4-806.3,769.4-806.3,769.4z"/>
	<path class="st8" d="M-833.1,780.8c-1.6-2.7-8-13.8-8-13.8l8.2,8.1c0,0-0.8,1.7-0.5,4.2L-833.1,780.8z"/>
</g>
<g>
	<path class="st5" d="M-775.1,766.8c0.4-0.1,1.2-0.2,2-0.2c1,0,1.6,0.1,2.1,0.5c0.5,0.3,0.8,0.8,0.8,1.4c0,0.7-0.4,1.3-1.2,1.6l0,0
		c0.8,0.2,1.5,0.8,1.5,1.8c0,0.7-0.3,1.2-0.7,1.5c-0.5,0.5-1.4,0.7-2.8,0.7c-0.7,0-1.3-0.1-1.7-0.1L-775.1,766.8L-775.1,766.8z
		 M-773.7,769.7h0.7c0.9,0,1.5-0.4,1.5-1.1s-0.5-1-1.4-1c-0.4,0-0.6,0-0.8,0.1V769.7z M-773.7,773.1c0.2,0,0.4,0,0.7,0
		c0.9,0,1.6-0.3,1.6-1.2s-0.7-1.2-1.7-1.2h-0.7v2.4H-773.7z"/>
	<path class="st5" d="M-764,772.5c0,0.6,0,1.2,0,1.6h-1.2l-0.1-0.8l0,0c-0.2,0.4-0.8,0.9-1.7,0.9c-1,0-1.9-0.6-1.9-2.3v-3.2h1.4v2.9
		c0,0.9,0.3,1.5,1,1.5c0.5,0,0.9-0.4,1-0.7c0-0.1,0.1-0.3,0.1-0.4v-3.3h1.4V772.5z"/>
	<path class="st5" d="M-761.1,767.2c0,0.4-0.3,0.7-0.8,0.7s-0.7-0.3-0.7-0.7s0.3-0.7,0.8-0.7C-761.4,766.5-761.1,766.8-761.1,767.2z
		 M-762.5,774.1v-5.4h1.4v5.4H-762.5z"/>
	<path class="st5" d="M-759.7,766.3h1.4v7.8h-1.4V766.3z"/>
	<path class="st5" d="M-755.3,767.2v1.5h1.3v1h-1.3v2.4c0,0.6,0.2,1,0.7,1c0.2,0,0.4,0,0.5-0.1v1c-0.2,0.1-0.6,0.1-1,0.1
		c-0.5,0-0.9-0.2-1.2-0.4c-0.3-0.3-0.4-0.8-0.4-1.5v-2.5h-0.8v-1h0.8v-1.2L-755.3,767.2z"/>
	<path class="st5" d="M-766.4,785.1v-4.3h-0.7v-1h0.7v-0.2c0-0.7,0.2-1.4,0.6-1.8c0.4-0.4,0.9-0.5,1.4-0.5c0.4,0,0.6,0.1,0.9,0.1
		l-0.1,1c-0.1-0.1-0.3-0.1-0.6-0.1c-0.7,0-0.9,0.6-0.9,1.2v0.3h1.2v1h-1.2v4.3H-766.4z"/>
	<path class="st5" d="M-758.1,782.4c0,2-1.4,2.8-2.8,2.8c-1.5,0-2.7-1-2.7-2.8s1.2-2.8,2.8-2.8
		C-759.1,779.6-758.1,780.7-758.1,782.4z M-762.1,782.4c0,1,0.5,1.8,1.3,1.8s1.3-0.8,1.3-1.8c0-0.8-0.4-1.8-1.3-1.8
		C-761.7,780.6-762.1,781.5-762.1,782.4z"/>
	<path class="st5" d="M-757,781.5c0-0.7,0-1.2,0-1.7h1.2v1l0,0c0.3-0.8,0.9-1.1,1.5-1.1c0.1,0,0.2,0,0.3,0v1.3c-0.1,0-0.2,0-0.4,0
		c-0.6,0-1.1,0.4-1.2,1c0,0.1,0,0.3,0,0.4v2.8h-1.4L-757,781.5L-757,781.5z"/>
	<path class="st5" d="M-792.7,794.9c-0.3,0.1-0.8,0.3-1.5,0.3c-1.6,0-2.7-1.1-2.7-2.7c0-1.6,1.1-2.8,2.9-2.8c0.6,0,1.1,0.1,1.3,0.3
		l-0.2,0.7c-0.2-0.1-0.6-0.3-1.1-0.3c-1.2,0-1.9,0.9-1.9,2c0,1.2,0.8,2,1.8,2c0.5,0,0.9-0.1,1.2-0.3L-792.7,794.9z"/>
	<path class="st5" d="M-789.9,787.3h1v3.3l0,0c0.2-0.3,0.4-0.5,0.7-0.7s0.6-0.3,1-0.3c0.7,0,1.9,0.4,1.9,2.3v3.2h-1V792
		c0-0.9-0.3-1.6-1.2-1.6c-0.6,0-1.1,0.4-1.3,1c-0.1,0.1-0.1,0.3-0.1,0.5v3.2h-1L-789.9,787.3L-789.9,787.3z"/>
	<path class="st5" d="M-782.1,791.4c0-0.6,0-1.2,0-1.7h0.8v1l0,0c0.2-0.7,0.8-1.2,1.5-1.2c0.1,0,0.2,0,0.3,0v0.9c-0.1,0-0.2,0-0.3,0
		c-0.7,0-1.2,0.5-1.3,1.2c0,0.1,0,0.3,0,0.5v2.8h-1V791.4z"/>
	<path class="st5" d="M-772.2,792.4c0,2-1.4,2.8-2.7,2.8c-1.4,0-2.6-1.1-2.6-2.7c0-1.8,1.2-2.8,2.6-2.8
		C-773.2,789.7-772.2,790.8-772.2,792.4z M-776.4,792.4c0,1.2,0.7,2,1.6,2c0.9,0,1.6-0.9,1.6-2.1c0-0.9-0.5-2-1.6-2
		C-775.9,790.4-776.4,791.4-776.4,792.4z"/>
	<path class="st5" d="M-769.3,791.2c0-0.5,0-1,0-1.4h0.8v0.9l0,0c0.3-0.5,0.8-1,1.7-1c0.7,0,1.3,0.4,1.5,1.1l0,0
		c0.2-0.3,0.4-0.5,0.6-0.7c0.3-0.2,0.7-0.4,1.2-0.4c0.7,0,1.7,0.5,1.7,2.3v3.1h-0.9v-3c0-1-0.4-1.6-1.2-1.6c-0.5,0-1,0.4-1.1,0.9
		c0,0.1-0.1,0.3-0.1,0.5v3.3h-0.9V792c0-0.8-0.4-1.5-1.1-1.5c-0.6,0-1,0.5-1.2,1c-0.1,0.1-0.1,0.3-0.1,0.5v3.2h-0.9V791.2z"/>
	<path class="st5" d="M-757.9,792.6c0,1.3,0.9,1.8,1.8,1.8c0.7,0,1.1-0.1,1.5-0.3l0.2,0.7c-0.3,0.2-0.9,0.3-1.8,0.3
		c-1.6,0-2.6-1.1-2.6-2.7c0-1.6,0.9-2.9,2.5-2.9c1.7,0,2.2,1.5,2.2,2.5c0,0.2,0,0.4,0,0.5h-3.8L-757.9,792.6L-757.9,792.6z
		 M-755.1,791.9c0-0.6-0.3-1.6-1.3-1.6s-1.4,0.9-1.5,1.6H-755.1z"/>
</g>
</svg>
