<?xml version="1.0" encoding="utf-8"?>
<!-- Generator: Adobe Illustrator 19.1.0, SVG Export Plug-In . SVG Version: 6.00 Build 0)  -->
<svg version="1.1" id="Layer_1" xmlns="http://www.w3.org/2000/svg" xmlns:xlink="http://www.w3.org/1999/xlink" x="0px" y="0px"
	 viewBox="-793.5 653.8 101.5 42.8" style="enable-background:new -793.5 653.8 101.5 42.8;" xml:space="preserve">
<style type="text/css">
	.st0{display:none;}
	.st1{clip-path:url(#SVGID_2_);fill:url(#SVGID_3_);}
	.st2{fill:#E53029;}
	.st3{fill:#FDD900;}
	.st4{fill:#66B44B;}
	.st5{fill:#61AB48;}
	.st6{fill:#FFFFFF;}
	.st7{fill:url(#SVGID_4_);}
	.st8{fill:#F0CE00;}
	.st9{fill:#D92F27;}
	.st10{font-family:'MyriadPro-Semibold';}
	.st11{font-size:11px;}
</style>
<g id="Layer_1_1_" xmlns:svg="http://www.w3.org/2000/svg" class="st0">
	
		<image style="display:inline;overflow:visible;enable-background:new    ;" width="115" height="44" xlink:href="5C140CCA.jpg"  transform="matrix(0.9895 0 0 0.9895 -803.3976 655.0305)">
	</image>
</g>
<g id="Layer_4">
	<g>
		<g>
			<g>
				<g>
					<defs>
						<path id="SVGID_1_" d="M-791.5,696.6h97.5c1.1,0,2-0.9,2-2v-35c0-1.1-0.9-2-2-2h-97.5c-1.1,0-2,0.9-2,2v35
							C-793.5,695.7-792.6,696.6-791.5,696.6z"/>
					</defs>
					<clipPath id="SVGID_2_">
						<use xlink:href="#SVGID_1_"  style="overflow:visible;"/>
					</clipPath>
					
						<linearGradient id="SVGID_3_" gradientUnits="userSpaceOnUse" x1="-1074.7567" y1="290.6459" x2="-1074.7566" y2="171.0254" gradientTransform="matrix(-1 0 0 1 -1817.5566 455.2787)">
						<stop  offset="0" style="stop-color:#86BBE5"/>
						<stop  offset="1" style="stop-color:#116CB3"/>
					</linearGradient>
					<path class="st1" d="M-680.7,684.7c0,34.3-27.8,62.1-62.1,62.1s-62.1-27.8-62.1-62.1s27.8-62.1,62.1-62.1
						S-680.7,650.4-680.7,684.7z"/>
				</g>
			</g>
		</g>
	</g>
</g>
<g id="Layer_3">
	<path class="st2" d="M-766.4,653.8c0,0,11.9-0.5,18.2,11.4c-3.3,0-19.2,0-19.2,0s-3.6-0.1-6.7,4.3c-0.9,1.8-1.8,3.7-0.8,7.5
		c-1.5-2.6-8.2-14.2-8.2-14.2S-778.4,654.3-766.4,653.8z"/>
	<path class="st3" d="M-748.9,684.1c0,0-5.5,10.6-19,10c1.7-2.9,9.6-16.6,9.6-16.6s1.9-3.1-0.3-7.9c-1.1-1.7-2.3-3.5-6.1-4.4
		c3,0,16.4,0,16.4,0S-743.3,673.5-748.9,684.1z"/>
	<path class="st4" d="M-783.9,684.2c0,0-6.4-10,0.8-21.4c1.7,2.9,9.6,16.6,9.6,16.6s1.7,3.2,7.1,3.7c2-0.1,4.2-0.3,6.9-3.1
		c-1.5,2.6-8.2,14.2-8.2,14.2S-777.5,694.3-783.9,684.2z"/>
	<path class="st5" d="M-767.8,694.2l2.7-11.3c0,0,3-0.2,5.5-3C-761.2,682.7-767.8,694.2-767.8,694.2z"/>
	<circle class="st6" cx="-766.5" cy="674.1" r="9"/>
	
		<linearGradient id="SVGID_4_" gradientUnits="userSpaceOnUse" x1="-766.5" y1="-411.7719" x2="-766.5" y2="-426.1833" gradientTransform="matrix(1 0 0 -1 0 255)">
		<stop  offset="0" style="stop-color:#86BBE5"/>
		<stop  offset="1" style="stop-color:#116CB3"/>
	</linearGradient>
	<circle class="st7" cx="-766.5" cy="674.1" r="7.5"/>
	<path class="st8" d="M-748.3,665.2l-11.1,3.3c0,0-1.7-2.5-5.3-3.3C-761.6,665.2-748.3,665.2-748.3,665.2z"/>
	<path class="st9" d="M-775.1,676.6c-1.6-2.7-8-13.8-8-13.8l8.2,8.1c0,0-0.8,1.7-0.5,4.2L-775.1,676.6z"/>
</g>
<text transform="matrix(1 0 0 1 -717.861 669.9004)" class="st6 st10 st11">Built</text>
<text transform="matrix(1 0 0 1 -709.361 680.9004)" class="st6 st10 st11">for</text>
<g>
	<path class="st6" d="M-717.1,662.6c0.4-0.1,1.2-0.2,2-0.2c1,0,1.6,0.1,2.1,0.5c0.5,0.3,0.8,0.8,0.8,1.4c0,0.7-0.4,1.3-1.2,1.6l0,0
		c0.8,0.2,1.5,0.8,1.5,1.8c0,0.7-0.3,1.2-0.7,1.5c-0.5,0.5-1.4,0.7-2.8,0.7c-0.7,0-1.3-0.1-1.7-0.1L-717.1,662.6L-717.1,662.6z
		 M-715.7,665.5h0.7c0.9,0,1.5-0.4,1.5-1.1s-0.5-1-1.4-1c-0.4,0-0.6,0-0.8,0.1V665.5z M-715.7,668.9c0.2,0,0.4,0,0.7,0
		c0.9,0,1.6-0.3,1.6-1.2s-0.7-1.2-1.7-1.2h-0.7v2.4H-715.7z"/>
	<path class="st6" d="M-706,668.3c0,0.6,0,1.2,0,1.6h-1.2l-0.1-0.8l0,0c-0.2,0.4-0.8,0.9-1.7,0.9c-1,0-1.9-0.6-1.9-2.3v-3.2h1.4v2.9
		c0,0.9,0.3,1.5,1,1.5c0.5,0,0.9-0.4,1-0.7c0-0.1,0.1-0.3,0.1-0.4v-3.3h1.4V668.3z"/>
	<path class="st6" d="M-703.1,663c0,0.4-0.3,0.7-0.8,0.7s-0.7-0.3-0.7-0.7s0.3-0.7,0.8-0.7C-703.4,662.3-703.1,662.6-703.1,663z
		 M-704.5,669.9v-5.4h1.4v5.4H-704.5z"/>
	<path class="st6" d="M-701.7,662.1h1.4v7.8h-1.4V662.1z"/>
	<path class="st6" d="M-697.3,663v1.5h1.3v1h-1.3v2.4c0,0.6,0.2,1,0.7,1c0.2,0,0.4,0,0.5-0.1v1c-0.2,0.1-0.6,0.1-1,0.1
		c-0.5,0-0.9-0.2-1.2-0.4c-0.3-0.3-0.4-0.8-0.4-1.5v-2.5h-0.8v-1h0.8v-1.2L-697.3,663z"/>
	<path class="st6" d="M-708.4,680.9v-4.3h-0.7v-1h0.7v-0.2c0-0.7,0.2-1.4,0.6-1.8c0.4-0.4,0.9-0.5,1.4-0.5c0.4,0,0.6,0.1,0.9,0.1
		l-0.1,1c-0.1-0.1-0.3-0.1-0.6-0.1c-0.7,0-0.9,0.6-0.9,1.2v0.3h1.2v1h-1.2v4.3H-708.4z"/>
	<path class="st6" d="M-700.1,678.2c0,2-1.4,2.8-2.8,2.8c-1.5,0-2.7-1-2.7-2.8s1.2-2.8,2.8-2.8
		C-701.1,675.4-700.1,676.5-700.1,678.2z M-704.1,678.2c0,1,0.5,1.8,1.3,1.8s1.3-0.8,1.3-1.8c0-0.8-0.4-1.8-1.3-1.8
		C-703.7,676.4-704.1,677.3-704.1,678.2z"/>
	<path class="st6" d="M-699,677.3c0-0.7,0-1.2,0-1.7h1.2v1l0,0c0.3-0.8,0.9-1.1,1.5-1.1c0.1,0,0.2,0,0.3,0v1.3c-0.1,0-0.2,0-0.4,0
		c-0.6,0-1.1,0.4-1.2,1c0,0.1,0,0.3,0,0.4v2.8h-1.4L-699,677.3L-699,677.3z"/>
	<path class="st6" d="M-734.7,690.7c-0.3,0.1-0.8,0.3-1.5,0.3c-1.6,0-2.7-1.1-2.7-2.7c0-1.6,1.1-2.8,2.9-2.8c0.6,0,1.1,0.1,1.3,0.3
		l-0.2,0.7c-0.2-0.1-0.6-0.3-1.1-0.3c-1.2,0-1.9,0.9-1.9,2c0,1.2,0.8,2,1.8,2c0.5,0,0.9-0.1,1.2-0.3L-734.7,690.7z"/>
	<path class="st6" d="M-731.9,683.1h1v3.3l0,0c0.2-0.3,0.4-0.5,0.7-0.7s0.6-0.3,1-0.3c0.7,0,1.9,0.4,1.9,2.3v3.2h-1v-3.1
		c0-0.9-0.3-1.6-1.2-1.6c-0.6,0-1.1,0.4-1.3,1c-0.1,0.1-0.1,0.3-0.1,0.5v3.2h-1L-731.9,683.1L-731.9,683.1z"/>
	<path class="st6" d="M-724.1,687.2c0-0.6,0-1.2,0-1.7h0.8v1l0,0c0.2-0.7,0.8-1.2,1.5-1.2c0.1,0,0.2,0,0.3,0v0.9c-0.1,0-0.2,0-0.3,0
		c-0.7,0-1.2,0.5-1.3,1.2c0,0.1,0,0.3,0,0.5v2.8h-1V687.2z"/>
	<path class="st6" d="M-714.2,688.2c0,2-1.4,2.8-2.7,2.8c-1.4,0-2.6-1.1-2.6-2.7c0-1.8,1.2-2.8,2.6-2.8
		C-715.2,685.5-714.2,686.6-714.2,688.2z M-718.4,688.2c0,1.2,0.7,2,1.6,2c0.9,0,1.6-0.9,1.6-2.1c0-0.9-0.5-2-1.6-2
		C-717.9,686.2-718.4,687.2-718.4,688.2z"/>
	<path class="st6" d="M-711.3,687c0-0.5,0-1,0-1.4h0.8v0.9l0,0c0.3-0.5,0.8-1,1.7-1c0.7,0,1.3,0.4,1.5,1.1l0,0
		c0.2-0.3,0.4-0.5,0.6-0.7c0.3-0.2,0.7-0.4,1.2-0.4c0.7,0,1.7,0.5,1.7,2.3v3.1h-0.9v-3c0-1-0.4-1.6-1.2-1.6c-0.5,0-1,0.4-1.1,0.9
		c0,0.1-0.1,0.3-0.1,0.5v3.3h-0.9v-3.2c0-0.8-0.4-1.5-1.1-1.5c-0.6,0-1,0.5-1.2,1c-0.1,0.1-0.1,0.3-0.1,0.5v3.2h-0.9V687z"/>
	<path class="st6" d="M-699.9,688.4c0,1.3,0.9,1.8,1.8,1.8c0.7,0,1.1-0.1,1.5-0.3l0.2,0.7c-0.3,0.2-0.9,0.3-1.8,0.3
		c-1.6,0-2.6-1.1-2.6-2.7c0-1.6,0.9-2.9,2.5-2.9c1.7,0,2.2,1.5,2.2,2.5c0,0.2,0,0.4,0,0.5h-3.8L-699.9,688.4L-699.9,688.4z
		 M-697.1,687.7c0-0.6-0.3-1.6-1.3-1.6s-1.4,0.9-1.5,1.6H-697.1z"/>
</g>
</svg>
