<?xml version="1.0" encoding="utf-8"?>
<!-- Generator: Adobe Illustrator 18.1.0, SVG Export Plug-In . SVG Version: 6.00 Build 0)  -->
<svg version="1.1" id="Layer_1" xmlns="http://www.w3.org/2000/svg" xmlns:xlink="http://www.w3.org/1999/xlink" x="0px" y="0px"
	 viewBox="0 0 113.6 99.9" enable-background="new 0 0 113.6 99.9" xml:space="preserve">
<g>
	<path fill="#FFDE17" d="M6.2,94.9c-0.5,0-0.9-0.1-1.1-0.1c0.1-0.2,0.2-0.6,0.5-1L56.1,6.1c0.3-0.4,0.5-0.7,0.7-0.9
		c0.2,0.2,0.4,0.5,0.7,0.9l50.6,87.7c0.3,0.4,0.4,0.8,0.5,1c-0.2,0.1-0.6,0.1-1.1,0.1H6.2z"/>
	<path fill="#231F20" d="M56.8,14.9l43.3,75H13.5L56.8,14.9 M56.8,0c-1.8,0-3.6,1.2-5,3.6L1.2,91.2c-2.8,4.8-0.5,8.7,5,8.7h101.2
		c5.5,0,7.8-3.9,5-8.7L61.8,3.6C60.4,1.2,58.6,0,56.8,0L56.8,0z"/>
	<path fill="#ED1C24" d="M56.8,10.9l46.8,81H10L56.8,10.9 M56.8,0c-1.8,0-3.6,1.2-5,3.6L1.2,91.2c-2.8,4.8-0.5,8.7,5,8.7h101.2
		c5.5,0,7.8-3.9,5-8.7L61.8,3.6C60.4,1.2,58.6,0,56.8,0L56.8,0z"/>
	<path fill="#231F20" d="M56.8,2c1.1,0,2.3,0.9,3.3,2.6l50.6,87.7c0.9,1.6,1.2,3.1,0.6,4.1c-0.6,1-2,1.5-3.9,1.5H6.2
		c-1.9,0-3.3-0.6-3.9-1.5c-0.6-1-0.4-2.5,0.6-4.1L53.5,4.6C54.5,2.9,55.7,2,56.8,2 M56.8,0c-1.8,0-3.6,1.2-5,3.6L1.2,91.2
		c-2.8,4.8-0.5,8.7,5,8.7h101.2c5.5,0,7.8-3.9,5-8.7L61.8,3.6C60.4,1.2,58.6,0,56.8,0L56.8,0z"/>
</g>
<g>
	<g>
		<path d="M49.8,78.6c0-4,2.8-7,6.9-7c4,0,6.7,2.9,6.8,7c0,4-2.7,7-6.8,7S49.8,82.6,49.8,78.6z M52.3,67.9l-1.8-34.6h12.1L61,67.9
			H52.3z"/>
	</g>
	<g>
		<path fill="#231F20" d="M49.8,78.6c0-4,2.8-7,6.9-7c4,0,6.7,2.9,6.8,7c0,4-2.7,7-6.8,7S49.8,82.6,49.8,78.6z M52.3,67.9l-1.8-34.6
			h12.1L61,67.9H52.3z"/>
	</g>
</g>
</svg>
