<?xml version="1.0" encoding="utf-8"?>
<!-- Generator: Adobe Illustrator 18.1.0, SVG Export Plug-In . SVG Version: 6.00 Build 0)  -->
<svg version="1.1" xmlns="http://www.w3.org/2000/svg" xmlns:xlink="http://www.w3.org/1999/xlink" x="0px" y="0px"
	 viewBox="-627.5 341 101.5 42.7" enable-background="new -627.5 341 101.5 42.7" xml:space="preserve">
<g id="Layer_1" xmlns:svg="http://www.w3.org/2000/svg" display="none">
	
		<image display="inline" overflow="visible" width="114" height="43" xlink:href="5C140CCD.jpg"  transform="matrix(1 0 0 1 -637.5 342.5)">
	</image>
</g>
<g id="Layer_4">
	<linearGradient id="SVGID_1_" gradientUnits="userSpaceOnUse" x1="-576.7784" y1="383.75" x2="-576.7784" y2="344.75">
		<stop  offset="0" style="stop-color:#FFFFFF"/>
		<stop  offset="1" style="stop-color:#86BBE5"/>
	</linearGradient>
	<path fill="url(#SVGID_1_)" d="M-625.5,383.8h97.5c1.1,0,2-0.9,2-2v-35c0-1.1-0.9-2-2-2h-97.5c-1.1,0-2,0.9-2,2v35
		C-627.5,382.9-626.6,383.8-625.5,383.8z"/>
</g>
<g id="Layer_2" display="none">
	<path id="S" display="inline" fill="#FFFFFF" d="M-572,377.2c0,0.9-0.3,1.6-1,2.1c-0.7,0.5-1.5,0.8-2.6,0.8c-1.5,0-2.7-0.4-3.5-1.3
		l1.2-1.2c0.5,0.5,1.3,0.8,2.3,0.8c1.1,0,1.7-0.4,1.7-1.2c0-0.4-0.1-0.6-0.3-0.8s-0.5-0.3-0.9-0.3l-1.2-0.2
		c-1.7-0.2-2.6-1.1-2.6-2.7c0-0.9,0.3-1.6,0.9-2.1c0.6-0.5,1.4-0.8,2.4-0.8c1.3,0,2.3,0.4,3.1,1.1l-1.2,1.2c-0.5-0.4-1.1-0.7-2-0.7
		c-0.5,0-0.8,0.1-1.1,0.3c-0.3,0.2-0.4,0.5-0.4,0.9c0,0.3,0.1,0.5,0.3,0.7c0.2,0.2,0.5,0.3,0.9,0.4l1.1,0.2c0.8,0.1,1.4,0.4,1.8,0.7
		C-572.2,375.7-572,376.3-572,377.2z"/>
	<path id="T" display="inline" fill="#FFFFFF" d="M-562.5,372.1h-2.5v8h-1.9v-8h-2.5v-1.7h6.9L-562.5,372.1L-562.5,372.1z"/>
	<path id="E" display="inline" fill="#FFFFFF" d="M-553.2,380.1h-6.3v-9.6h6.3v1.7h-4.5v2.3h3.8v1.7h-3.8v2.3h4.5V380.1z"/>
	<path id="A" display="inline" fill="#FFFFFF" d="M-541.9,380.1h-2l-0.6-1.7h-3.4l-0.6,1.7h-2l3.5-9.6h1.5L-541.9,380.1z
		 M-544.9,376.8l-1.2-3.5l-1.2,3.5H-544.9z"/>
	<path id="M" display="inline" fill="#FFFFFF" d="M-530.5,380.1h-1.9v-5.6l-1.8,3.7h-1.3l-1.9-3.7v5.6h-1.9v-9.6h1.8l2.5,5.2
		l2.5-5.2h1.9L-530.5,380.1L-530.5,380.1z"/>
	<path id="SmallT" display="inline" fill="#FFFFFF" d="M-528.7,370.7h-0.4v1.2h-0.3v-1.2h-0.4v-0.3h1.1L-528.7,370.7L-528.7,370.7z"
		/>
	<path id="SmallM" display="inline" fill="#FFFFFF" d="M-527.2,371.9h-0.3v-0.9l-0.3,0.6h-0.2l-0.3-0.6v0.9h-0.3v-1.5h0.3l0.4,0.8
		l0.4-0.8h0.3V371.9z"/>
	<g display="inline">
		<path fill="#FFFFFF" d="M-566,348.2c0.4-0.1,1-0.1,1.9-0.1c0.9,0,1.5,0.2,2,0.5c0.4,0.3,0.7,0.9,0.7,1.5c0,0.6-0.2,1.2-0.6,1.5
			c-0.5,0.5-1.2,0.7-2.1,0.7c-0.2,0-0.4,0-0.6,0v2.5h-1.2V348.2z M-564.8,351.3c0.1,0,0.3,0,0.6,0c0.9,0,1.5-0.4,1.5-1.2
			c0-0.7-0.5-1.1-1.4-1.1c-0.3,0-0.6,0-0.7,0.1V351.3z"/>
		<path fill="#FFFFFF" d="M-556.2,352.4c0,1.8-1.2,2.6-2.5,2.6c-1.4,0-2.4-0.9-2.4-2.5c0-1.6,1-2.6,2.5-2.6
			C-557.2,349.9-556.2,350.9-556.2,352.4z M-559.8,352.4c0,0.9,0.5,1.6,1.2,1.6c0.7,0,1.2-0.7,1.2-1.7c0-0.8-0.3-1.6-1.2-1.6
			C-559.5,350.8-559.8,351.6-559.8,352.4z"/>
		<path fill="#FFFFFF" d="M-554.5,350l0.5,2.2c0.1,0.5,0.2,1,0.3,1.6h0c0.1-0.5,0.3-1.1,0.4-1.6l0.6-2.2h1l0.6,2.1
			c0.1,0.6,0.3,1.1,0.4,1.6h0c0.1-0.5,0.2-1.1,0.3-1.6l0.5-2.1h1.2l-1.5,4.8h-1.1l-0.6-2c-0.1-0.5-0.3-1-0.4-1.5h0
			c-0.1,0.6-0.2,1.1-0.4,1.5l-0.6,2h-1.1l-1.4-4.8H-554.5z"/>
		<path fill="#FFFFFF" d="M-547.1,352.7c0,0.9,0.7,1.2,1.5,1.2c0.6,0,1-0.1,1.3-0.2l0.2,0.8c-0.4,0.2-1,0.3-1.7,0.3
			c-1.6,0-2.5-1-2.5-2.4c0-1.3,0.8-2.6,2.4-2.6c1.6,0,2.1,1.3,2.1,2.4c0,0.2,0,0.4,0,0.5H-547.1z M-545,351.9c0-0.4-0.2-1.2-1-1.2
			c-0.8,0-1.1,0.7-1.1,1.2H-545z"/>
		<path fill="#FFFFFF" d="M-542.9,351.5c0-0.7,0-1.1,0-1.6h1.1l0,0.9h0c0.2-0.7,0.8-1,1.3-1c0.1,0,0.2,0,0.3,0v1.2
			c-0.1,0-0.2,0-0.4,0c-0.6,0-1,0.4-1.1,0.9c0,0.1,0,0.2,0,0.4v2.5h-1.2V351.5z"/>
		<path fill="#FFFFFF" d="M-538.6,352.7c0,0.9,0.7,1.2,1.5,1.2c0.6,0,1-0.1,1.3-0.2l0.2,0.8c-0.4,0.2-1,0.3-1.7,0.3
			c-1.6,0-2.5-1-2.5-2.4c0-1.3,0.8-2.6,2.4-2.6c1.6,0,2.1,1.3,2.1,2.4c0,0.2,0,0.4,0,0.5H-538.6z M-536.4,351.9c0-0.4-0.2-1.2-1-1.2
			c-0.8,0-1.1,0.7-1.1,1.2H-536.4z"/>
		<path fill="#FFFFFF" d="M-529.8,347.8v5.7c0,0.5,0,1,0,1.4h-1.1l0-0.8h0c-0.3,0.5-0.9,0.9-1.6,0.9c-1.2,0-2.1-1-2.1-2.5
			c0-1.6,1-2.6,2.2-2.6c0.7,0,1.1,0.3,1.4,0.6h0v-2.7H-529.8z M-531.1,352c0-0.1,0-0.2,0-0.3c-0.1-0.5-0.5-0.9-1.1-0.9
			c-0.8,0-1.2,0.7-1.2,1.6c0,0.9,0.4,1.5,1.2,1.5c0.5,0,0.9-0.3,1.1-0.9c0-0.1,0-0.2,0-0.4V352z"/>
		<path fill="#FFFFFF" d="M-539.3,365.6c0-0.3,0-0.9,0-1.4v-5.7h1.2v2.9h0c0.3-0.5,0.8-0.8,1.5-0.8c1.2,0,2,1,2,2.4
			c0,1.7-1.1,2.6-2.2,2.6c-0.6,0-1.2-0.2-1.5-0.8h0l-0.1,0.7H-539.3z M-538,363.6c0,0.1,0,0.2,0,0.3c0.1,0.5,0.6,0.9,1.1,0.9
			c0.8,0,1.2-0.6,1.2-1.6c0-0.9-0.4-1.5-1.2-1.5c-0.5,0-0.9,0.4-1.1,0.9c0,0.1,0,0.2,0,0.3V363.6z"/>
		<path fill="#FFFFFF" d="M-532.7,360.8l0.9,2.6c0.1,0.3,0.2,0.7,0.3,0.9h0c0.1-0.3,0.2-0.6,0.3-1l0.8-2.6h1.3l-1.2,3.3
			c-0.7,1.8-1.1,2.6-1.7,3.1c-0.5,0.4-1,0.6-1.3,0.6l-0.3-1c0.2,0,0.5-0.2,0.7-0.3c0.2-0.1,0.5-0.4,0.7-0.8c0-0.1,0.1-0.2,0.1-0.2
			c0,0,0-0.1-0.1-0.2l-1.8-4.4H-532.7z"/>
	</g>
</g>
<g id="Layer_3">
	<path fill="#E53029" d="M-600.4,341c0,0,11.9-0.5,18.2,11.4c-3.3,0-19.2,0-19.2,0s-3.6-0.1-6.7,4.3c-0.9,1.8-1.8,3.7-0.8,7.5
		c-1.5-2.6-8.2-14.2-8.2-14.2S-612.4,341.5-600.4,341z"/>
	<path fill="#FDD900" d="M-582.9,371.3c0,0-5.5,10.6-19,10c1.7-2.9,9.6-16.6,9.6-16.6s1.9-3.1-0.3-7.9c-1.1-1.7-2.3-3.5-6.1-4.4
		c3,0,16.4,0,16.4,0S-577.3,360.7-582.9,371.3z"/>
	<path fill="#66B44B" d="M-617.9,371.4c0,0-6.4-10,0.8-21.4c1.7,2.9,9.6,16.6,9.6,16.6s1.7,3.2,7.1,3.7c2-0.1,4.2-0.3,6.9-3.1
		c-1.5,2.6-8.2,14.2-8.2,14.2S-611.5,381.5-617.9,371.4z"/>
	<path fill="#61AB48" d="M-601.8,381.4l2.7-11.3c0,0,3-0.2,5.5-3C-595.2,369.9-601.8,381.4-601.8,381.4z"/>
	<circle fill="#FFFFFF" cx="-600.5" cy="361.3" r="9"/>
	<linearGradient id="SVGID_2_" gradientUnits="userSpaceOnUse" x1="-600.4858" y1="353.9719" x2="-600.4858" y2="368.3833">
		<stop  offset="0" style="stop-color:#86BBE5"/>
		<stop  offset="1" style="stop-color:#116CB3"/>
	</linearGradient>
	<circle fill="url(#SVGID_2_)" cx="-600.5" cy="361.3" r="7.5"/>
	<path fill="#F0CE00" d="M-582.3,352.4l-11.1,3.3c0,0-1.7-2.5-5.3-3.3C-595.6,352.4-582.3,352.4-582.3,352.4z"/>
	<path fill="#D92F27" d="M-609.1,363.8c-1.6-2.7-8-13.8-8-13.8l8.2,8.1c0,0-0.8,1.7-0.5,4.2L-609.1,363.8z"/>
</g>
<g id="Layer_5">
	<g>
		<path d="M-557,348.2c0.4-0.1,1.1-0.1,1.9-0.1c0.9,0,1.6,0.2,2,0.6c0.4,0.3,0.7,0.9,0.7,1.5c0,0.6-0.2,1.2-0.6,1.5
			c-0.5,0.5-1.3,0.7-2.1,0.7c-0.2,0-0.4,0-0.6,0v2.6h-1.2V348.2z M-555.8,351.4c0.2,0,0.4,0.1,0.6,0.1c0.9,0,1.5-0.5,1.5-1.3
			c0-0.8-0.5-1.2-1.4-1.2c-0.3,0-0.6,0-0.7,0.1V351.4z"/>
		<path d="M-551.5,347.8h1.3v7.2h-1.3V347.8z"/>
		<path d="M-548,352.8c0,0.9,0.7,1.3,1.5,1.3c0.6,0,1-0.1,1.4-0.2l0.2,0.9c-0.4,0.2-1,0.3-1.7,0.3c-1.6,0-2.5-1-2.5-2.5
			c0-1.4,0.8-2.6,2.4-2.6c1.6,0,2.1,1.3,2.1,2.4c0,0.2,0,0.4,0,0.5H-548z M-545.8,351.9c0-0.5-0.2-1.2-1-1.2c-0.8,0-1.1,0.7-1.1,1.2
			H-545.8z"/>
		<path d="M-540.9,354.9l-0.1-0.5h0c-0.3,0.4-0.8,0.7-1.5,0.7c-1,0-1.5-0.7-1.5-1.5c0-1.2,1.1-1.9,2.9-1.9v-0.1c0-0.3-0.1-0.9-1-0.9
			c-0.5,0-1,0.2-1.3,0.4l-0.2-0.8c0.4-0.2,1-0.4,1.8-0.4c1.6,0,2,1,2,2.1v1.8c0,0.4,0,0.9,0.1,1.2H-540.9z M-541.1,352.5
			c-0.9,0-1.7,0.2-1.7,0.9c0,0.5,0.3,0.7,0.7,0.7c0.5,0,0.9-0.3,1-0.7c0-0.1,0-0.2,0-0.3V352.5z"/>
		<path d="M-538.6,353.8c0.3,0.2,0.8,0.4,1.3,0.4c0.5,0,0.8-0.2,0.8-0.5c0-0.3-0.2-0.5-0.8-0.7c-1-0.3-1.4-0.9-1.4-1.4
			c0-0.9,0.7-1.5,1.9-1.5c0.5,0,1,0.1,1.3,0.3l-0.2,0.9c-0.2-0.1-0.6-0.3-1-0.3c-0.4,0-0.7,0.2-0.7,0.5c0,0.3,0.2,0.5,0.9,0.7
			c0.9,0.3,1.3,0.8,1.3,1.5c0,0.9-0.7,1.5-2,1.5c-0.6,0-1.1-0.1-1.5-0.3L-538.6,353.8z"/>
		<path d="M-533.5,352.8c0,0.9,0.7,1.3,1.5,1.3c0.6,0,1-0.1,1.4-0.2l0.2,0.9c-0.4,0.2-1,0.3-1.7,0.3c-1.6,0-2.5-1-2.5-2.5
			c0-1.4,0.8-2.6,2.4-2.6c1.6,0,2.1,1.3,2.1,2.4c0,0.2,0,0.4,0,0.5H-533.5z M-531.3,351.9c0-0.5-0.2-1.2-1-1.2
			c-0.8,0-1.1,0.7-1.1,1.2H-531.3z"/>
		<path d="M-539.9,364.4c0,0.6,0,1.1,0,1.5h-1.1l-0.1-0.7h0c-0.2,0.4-0.7,0.9-1.6,0.9c-0.9,0-1.7-0.5-1.7-2.1V361h1.2v2.7
			c0,0.8,0.3,1.3,0.9,1.3c0.5,0,0.8-0.4,0.9-0.7c0-0.1,0.1-0.2,0.1-0.4v-3h1.2V364.4z"/>
		<path d="M-538.6,364.8c0.3,0.2,0.8,0.4,1.3,0.4c0.5,0,0.8-0.2,0.8-0.5c0-0.3-0.2-0.5-0.8-0.7c-1-0.3-1.4-0.9-1.4-1.4
			c0-0.9,0.7-1.5,1.9-1.5c0.5,0,1,0.1,1.3,0.3l-0.2,0.9c-0.2-0.1-0.6-0.3-1-0.3c-0.4,0-0.7,0.2-0.7,0.5c0,0.3,0.2,0.5,0.9,0.7
			c0.9,0.3,1.3,0.8,1.3,1.5c0,0.9-0.7,1.5-2,1.5c-0.6,0-1.1-0.1-1.5-0.3L-538.6,364.8z"/>
		<path d="M-533.5,363.8c0,0.9,0.7,1.3,1.5,1.3c0.6,0,1-0.1,1.4-0.2l0.2,0.9c-0.4,0.2-1,0.3-1.7,0.3c-1.6,0-2.5-1-2.5-2.5
			c0-1.4,0.8-2.6,2.4-2.6c1.6,0,2.1,1.3,2.1,2.4c0,0.2,0,0.4,0,0.5H-533.5z M-531.3,362.9c0-0.5-0.2-1.2-1-1.2
			c-0.8,0-1.1,0.7-1.1,1.2H-531.3z"/>
	</g>
	<g>
		<path d="M-568.5,377.4c-0.3,0.1-0.9,0.3-1.8,0.3c-1.9,0-3.1-1.1-3.1-2.9c0-1.7,1.3-3,3.3-3c0.7,0,1.3,0.2,1.6,0.3l-0.3,0.8
			c-0.3-0.1-0.7-0.3-1.3-0.3c-1.4,0-2.2,1-2.2,2.1c0,1.3,0.9,2.1,2.1,2.1c0.6,0,1.1-0.2,1.4-0.3L-568.5,377.4z"/>
		<path d="M-566.6,369.4h1.1v3.5h0c0.2-0.3,0.5-0.5,0.8-0.7c0.3-0.2,0.7-0.3,1.1-0.3c0.8,0,2.2,0.5,2.2,2.4v3.3h-1.1v-3.2
			c0-0.9-0.4-1.7-1.4-1.7c-0.7,0-1.3,0.5-1.5,1c-0.1,0.1-0.1,0.3-0.1,0.5v3.4h-1.1V369.4z"/>
		<path d="M-558.9,373.8c0-0.7,0-1.2-0.1-1.8h1l0,1.1h0.1c0.3-0.8,1-1.2,1.7-1.2c0.1,0,0.2,0,0.3,0v1c-0.1,0-0.2,0-0.4,0
			c-0.8,0-1.4,0.5-1.5,1.3c0,0.1-0.1,0.3-0.1,0.5v3h-1.1V373.8z"/>
		<path d="M-548.6,374.8c0,2.1-1.6,3-3.1,3c-1.7,0-3-1.1-3-2.9c0-1.9,1.4-3,3.1-3C-549.8,371.9-548.6,373.1-548.6,374.8z
			 M-553.5,374.8c0,1.2,0.8,2.2,1.9,2.2c1.1,0,1.9-0.9,1.9-2.2c0-1-0.5-2.2-1.8-2.2C-552.9,372.6-553.5,373.8-553.5,374.8z"/>
		<path d="M-546.5,373.5c0-0.6,0-1.1-0.1-1.5h1l0.1,0.9h0c0.3-0.5,0.9-1,1.9-1c0.8,0,1.5,0.5,1.7,1.1h0c0.2-0.3,0.4-0.6,0.7-0.7
			c0.4-0.3,0.8-0.4,1.4-0.4c0.8,0,2,0.5,2,2.4v3.3h-1.1v-3.2c0-1.1-0.4-1.7-1.3-1.7c-0.6,0-1.1,0.4-1.3,0.9
			c-0.1,0.1-0.1,0.3-0.1,0.5v3.5h-1.1v-3.4c0-0.9-0.4-1.5-1.3-1.5c-0.7,0-1.2,0.5-1.4,1c-0.1,0.2-0.1,0.3-0.1,0.5v3.4h-1.1V373.5z"
			/>
		<path d="M-534.6,375c0,1.4,1,1.9,2.1,1.9c0.8,0,1.3-0.1,1.7-0.3l0.2,0.7c-0.4,0.2-1.1,0.3-2.1,0.3c-1.9,0-3-1.1-3-2.8
			c0-1.7,1.1-3,2.9-3c2,0,2.6,1.6,2.6,2.6c0,0.2,0,0.4,0,0.5H-534.6z M-531.4,374.3c0-0.6-0.3-1.7-1.6-1.7c-1.1,0-1.6,1-1.7,1.7
			H-531.4z"/>
	</g>
</g>
</svg>
