<?xml version="1.0" encoding="utf-8"?>
<!-- Generator: Adobe Illustrator 18.1.0, SVG Export Plug-In . SVG Version: 6.00 Build 0)  -->
<svg version="1.1" xmlns="http://www.w3.org/2000/svg" xmlns:xlink="http://www.w3.org/1999/xlink" x="0px" y="0px"
	 viewBox="-636.7 344.4 111.6 39.7" enable-background="new -636.7 344.4 111.6 39.7" xml:space="preserve">
<g id="Layer_1" xmlns:svg="http://www.w3.org/2000/svg" display="none">
	
		<image display="inline" overflow="visible" width="114" height="43" xlink:href="493C76C3.jpg"  transform="matrix(1 0 0 1 -637.5 342.5)">
	</image>
</g>
<g id="Layer_2">
	<linearGradient id="SVGID_1_" gradientUnits="userSpaceOnUse" x1="-576.7084" y1="384.0833" x2="-576.7084" y2="344.4167">
		<stop  offset="0" style="stop-color:#787878"/>
		<stop  offset="1" style="stop-color:#000000"/>
	</linearGradient>
	<path fill="url(#SVGID_1_)" d="M-626.3,384.1h99.3c1.1,0,2-0.9,2-2v-35.7c0-1.1-0.9-2-2-2h-99.3c-1.1,0-2,0.9-2,2v35.7
		C-628.3,383.2-627.4,384.1-626.3,384.1z"/>
	<path id="Gears" fill="#FFFFFF" d="M-573,357.7c0,2.7-2.2,4.9-4.9,4.9s-4.9-2.2-4.9-4.9c0-2.7,2.2-4.9,4.9-4.9
		S-573,354.9-573,357.7z M-578,348.5c-5.1,0-9.2,4.1-9.2,9.1l-5.7,8.2c-0.2,0-0.5,0-0.7,0c-1.3,0-2.5,0.4-3.5,1l-26-10.4
		c-0.7-3.1-3.4-5.4-6.7-5.4c-3.8,0-6.9,3.1-6.9,6.9s3.1,6.9,6.9,6.9c1.3,0,2.5-0.4,3.5-1l26,10.4c0.7,3.1,3.4,5.4,6.7,5.4
		c3.6,0,6.5-2.7,6.8-6.2l8.8-6.4c5.1,0,9.2-4.1,9.2-9.2C-568.8,352.6-572.9,348.5-578,348.5z M-578,351.5c3.4,0,6.2,2.8,6.2,6.2
		c0,3.4-2.8,6.2-6.2,6.2s-6.2-2.8-6.2-6.2C-584.2,354.3-581.4,351.5-578,351.5z M-629.8,352.7c1.9,0,3.6,1.1,4.5,2.7l-2.5-1v0
		c-2-0.7-4.3,0.3-5.1,2.3s0.1,4.3,2.1,5.2v0l2.1,0.9c-0.4,0.1-0.7,0.1-1.1,0.1c-2.8,0-5-2.3-5-5S-632.6,352.7-629.8,352.7z
		 M-593.6,367.6c2.8,0,5,2.2,5,5c0,2.8-2.3,5-5,5c-1.9,0-3.6-1.1-4.5-2.7c0.8,0.3,1.7,0.7,2.5,1c2.1,0.8,4.4-0.2,5.2-2.2
		c0.8-2.1-0.2-4.4-2.2-5.2l-2.1-0.8C-594.4,367.6-594,367.6-593.6,367.6z"/>
	<path id="S" fill="#FFFFFF" d="M-571.8,377.5c0,0.9-0.3,1.7-1,2.2c-0.7,0.5-1.6,0.8-2.6,0.8c-1.5,0-2.7-0.4-3.6-1.3l1.2-1.2
		c0.6,0.6,1.3,0.8,2.4,0.8c1.2,0,1.7-0.4,1.7-1.2c0-0.4-0.1-0.6-0.3-0.8c-0.2-0.2-0.5-0.3-0.9-0.4l-1.2-0.2
		c-1.7-0.2-2.6-1.2-2.6-2.7c0-0.9,0.3-1.6,0.9-2.2c0.6-0.5,1.4-0.8,2.5-0.8c1.3,0,2.4,0.4,3.2,1.1l-1.2,1.2c-0.5-0.4-1.1-0.7-2-0.7
		c-0.5,0-0.9,0.1-1.1,0.4c-0.3,0.2-0.4,0.5-0.4,0.9c0,0.3,0.1,0.5,0.3,0.7c0.2,0.2,0.5,0.3,0.9,0.4l1.2,0.2c0.8,0.1,1.5,0.4,1.9,0.8
		C-572.1,375.9-571.8,376.5-571.8,377.5z"/>
	<path id="T" fill="#FFFFFF" d="M-562.2,372.3h-2.6v8.1h-1.9v-8.1h-2.6v-1.7h7L-562.2,372.3L-562.2,372.3z"/>
	<path id="E" fill="#FFFFFF" d="M-552.7,380.3h-6.5v-9.8h6.5v1.7h-4.5v2.3h3.9v1.7h-3.9v2.4h4.5V380.3z"/>
	<path id="A" fill="#FFFFFF" d="M-541.2,380.3h-2l-0.6-1.7h-3.5l-0.6,1.7h-2l3.6-9.8h1.5L-541.2,380.3z M-544.3,377l-1.2-3.6
		l-1.2,3.6H-544.3z"/>
	<path id="M" fill="#FFFFFF" d="M-529.7,380.3h-1.9v-5.7l-1.9,3.7h-1.3l-1.9-3.7v5.7h-1.9v-9.8h1.9l2.5,5.3l2.5-5.3h1.9
		L-529.7,380.3L-529.7,380.3z"/>
	<path id="SmallT" fill="#FFFFFF" d="M-527.8,370.8h-0.4v1.2h-0.3v-1.2h-0.4v-0.3h1.1L-527.8,370.8L-527.8,370.8z"/>
	<path id="SmallM" fill="#FFFFFF" d="M-526.3,372.1h-0.3v-0.9l-0.3,0.6h-0.2l-0.3-0.6v0.9h-0.3v-1.5h0.3l0.4,0.8l0.4-0.8h0.3V372.1z
		"/>
	<g>
		<path fill="#FFFFFF" d="M-565.8,347.9c0.4-0.1,1.1-0.1,1.9-0.1c0.9,0,1.6,0.2,2,0.6c0.4,0.3,0.7,0.9,0.7,1.5
			c0,0.6-0.2,1.2-0.6,1.5c-0.5,0.5-1.3,0.7-2.1,0.7c-0.2,0-0.4,0-0.6,0v2.6h-1.2V347.9z M-564.6,351.1c0.2,0,0.4,0.1,0.6,0.1
			c0.9,0,1.5-0.5,1.5-1.3c0-0.8-0.5-1.2-1.4-1.2c-0.3,0-0.6,0-0.7,0.1V351.1z"/>
		<path fill="#FFFFFF" d="M-555.8,352.1c0,1.8-1.3,2.6-2.5,2.6c-1.4,0-2.5-1-2.5-2.5c0-1.6,1.1-2.6,2.5-2.6
			C-556.8,349.6-555.8,350.7-555.8,352.1z M-559.5,352.2c0,0.9,0.5,1.7,1.2,1.7c0.7,0,1.2-0.7,1.2-1.7c0-0.8-0.3-1.6-1.2-1.6
			C-559.1,350.5-559.5,351.4-559.5,352.2z"/>
		<path fill="#FFFFFF" d="M-554.1,349.7l0.5,2.2c0.1,0.5,0.2,1.1,0.3,1.6h0c0.1-0.5,0.3-1.1,0.4-1.6l0.6-2.2h1l0.6,2.2
			c0.2,0.6,0.3,1.1,0.4,1.6h0c0.1-0.5,0.2-1.1,0.3-1.6l0.5-2.2h1.2l-1.5,4.9h-1.1l-0.6-2c-0.2-0.5-0.3-1-0.4-1.6h0
			c-0.1,0.6-0.2,1.1-0.4,1.6l-0.6,2h-1.2l-1.5-4.9H-554.1z"/>
		<path fill="#FFFFFF" d="M-546.5,352.5c0,0.9,0.7,1.3,1.5,1.3c0.6,0,1-0.1,1.4-0.2l0.2,0.9c-0.4,0.2-1,0.3-1.7,0.3
			c-1.6,0-2.5-1-2.5-2.5c0-1.4,0.8-2.6,2.4-2.6c1.6,0,2.1,1.3,2.1,2.4c0,0.2,0,0.4,0,0.5H-546.5z M-544.4,351.7c0-0.5-0.2-1.2-1-1.2
			c-0.8,0-1.1,0.7-1.1,1.2H-544.4z"/>
		<path fill="#FFFFFF" d="M-542.2,351.3c0-0.7,0-1.1,0-1.6h1.1l0,0.9h0c0.2-0.7,0.8-1,1.3-1c0.1,0,0.2,0,0.3,0v1.2
			c-0.1,0-0.2,0-0.4,0c-0.6,0-1,0.4-1.1,0.9c0,0.1,0,0.2,0,0.4v2.5h-1.2V351.3z"/>
		<path fill="#FFFFFF" d="M-537.8,352.5c0,0.9,0.7,1.3,1.5,1.3c0.6,0,1-0.1,1.4-0.2l0.2,0.9c-0.4,0.2-1,0.3-1.7,0.3
			c-1.6,0-2.5-1-2.5-2.5c0-1.4,0.8-2.6,2.4-2.6c1.6,0,2.1,1.3,2.1,2.4c0,0.2,0,0.4,0,0.5H-537.8z M-535.7,351.7c0-0.5-0.2-1.2-1-1.2
			c-0.8,0-1.1,0.7-1.1,1.2H-535.7z"/>
		<path fill="#FFFFFF" d="M-529,347.5v5.8c0,0.5,0,1,0,1.4h-1.1l-0.1-0.8h0c-0.3,0.5-0.9,0.9-1.6,0.9c-1.2,0-2.1-1-2.1-2.5
			c0-1.6,1-2.6,2.2-2.6c0.7,0,1.2,0.3,1.4,0.6h0v-2.8H-529z M-530.2,351.8c0-0.1,0-0.2,0-0.3c-0.1-0.5-0.5-0.9-1.1-0.9
			c-0.8,0-1.2,0.7-1.2,1.6c0,0.9,0.4,1.6,1.2,1.6c0.5,0,0.9-0.3,1.1-0.9c0-0.1,0-0.2,0-0.4V351.8z"/>
		<path fill="#FFFFFF" d="M-538.5,365.6c0-0.3,0-0.9,0-1.4v-5.8h1.2v2.9h0c0.3-0.5,0.8-0.8,1.6-0.8c1.2,0,2.1,1,2,2.5
			c0,1.8-1.1,2.6-2.2,2.6c-0.6,0-1.2-0.2-1.6-0.8h0l-0.1,0.7H-538.5z M-537.3,363.6c0,0.1,0,0.2,0,0.3c0.1,0.5,0.6,0.9,1.1,0.9
			c0.8,0,1.3-0.6,1.3-1.6c0-0.9-0.4-1.6-1.2-1.6c-0.5,0-1,0.4-1.1,0.9c0,0.1,0,0.2,0,0.3V363.6z"/>
		<path fill="#FFFFFF" d="M-531.9,360.7l0.9,2.6c0.1,0.3,0.2,0.7,0.3,1h0c0.1-0.3,0.2-0.6,0.3-1l0.8-2.6h1.3l-1.2,3.3
			c-0.7,1.8-1.1,2.7-1.7,3.2c-0.5,0.4-1,0.6-1.3,0.6l-0.3-1c0.2-0.1,0.5-0.2,0.7-0.3c0.2-0.2,0.5-0.4,0.7-0.8
			c0.1-0.1,0.1-0.2,0.1-0.2c0-0.1,0-0.1-0.1-0.2l-1.8-4.5H-531.9z"/>
	</g>
</g>
</svg>
