<?xml version="1.0" encoding="utf-8"?>
<!-- Generator: Adobe Illustrator 18.1.0, SVG Export Plug-In . SVG Version: 6.00 Build 0)  -->
<svg version="1.1" xmlns="http://www.w3.org/2000/svg" xmlns:xlink="http://www.w3.org/1999/xlink" x="0px" y="0px"
	 viewBox="0 0 22 28.8" enable-background="new 0 0 22 28.8" xml:space="preserve">
<g id="Layer_1" display="none">
	<g display="inline">
		<path fill="#ED1C24" d="M11,31.2c-8.5,0-15.5-7-15.5-15.5S2.5,0.2,11,0.2s15.5,7,15.5,15.5S19.5,31.2,11,31.2z"/>
		<path fill="#231F20" d="M11,0.7c8.3,0,15,6.7,15,15s-6.7,15-15,15s-15-6.7-15-15S2.7,0.7,11,0.7 M11-0.3c-8.8,0-16,7.2-16,16
			s7.2,16,16,16s16-7.2,16-16S19.8-0.3,11-0.3L11-0.3z"/>
	</g>
	<rect x="0.4" y="12.8" display="inline" fill="#FFFFFF" width="21.1" height="5.6"/>
</g>
<g id="Layer_2">
	<g>
		<path fill="none" d="M14,3c0-0.6-0.4-1-1-1H9C8.4,2,8,2.4,8,3v1.4h6V3z"/>
		<path fill="#FFFFFF" d="M21,4.4h-5V3c0-1.7-1.3-3-3-3H9C7.3,0,6,1.3,6,3v1.4H1c-0.5,0-1,0.5-1,1v0.3c0,0.6,0.5,1,1,1h0.6v20.1
			c0,1.1,0.9,2,2,2h14.8c1.1,0,2-0.9,2-2V6.7H21c0.5,0,1-0.4,1-1V5.4C22,4.8,21.5,4.4,21,4.4z M8,3c0-0.6,0.4-1,1-1h4
			c0.6,0,1,0.4,1,1v1.4H8V3z M7.9,26.1H6.1V12.1h1.8V26.1z M11.9,26.1h-1.8V12.1h1.8V26.1z M15.9,26.1h-1.8V12.1h1.8V26.1z"/>
	</g>
</g>
</svg>
